<?xml version="1.0" encoding="UTF-8" standalone="no"?>
<svg
   width="550"
   height="550"
   viewBox="0 0 550 550"
   version="1.1"
   id="svg38"
   sodipodi:docname="download-our-free-fox-svg-design-your-creative-projects.svg"
   inkscape:version="1.2.1 (9c6d41e410, 2022-07-14)"
   xmlns:inkscape="http://www.inkscape.org/namespaces/inkscape"
   xmlns:sodipodi="http://sodipodi.sourceforge.net/DTD/sodipodi-0.dtd"
   xmlns="http://www.w3.org/2000/svg"
   xmlns:svg="http://www.w3.org/2000/svg"
   xmlns:rdf="http://www.w3.org/1999/02/22-rdf-syntax-ns#"
   xmlns:cc="http://creativecommons.org/ns#"
   xmlns:dc="http://purl.org/dc/elements/1.1/">
  <title
     id="title150">Download Our Free Fox SVG Design for Your Creative Projects</title>
  <defs
     id="defs42" />
  <sodipodi:namedview
     id="namedview40"
     pagecolor="#ffffff"
     bordercolor="#000000"
     borderopacity="0.25"
     inkscape:showpageshadow="2"
     inkscape:pageopacity="0.0"
     inkscape:pagecheckerboard="0"
     inkscape:deskcolor="#d1d1d1"
     showgrid="false"
     inkscape:zoom="1.48"
     inkscape:cx="258.78378"
     inkscape:cy="275.33784"
     inkscape:window-width="1920"
     inkscape:window-height="1001"
     inkscape:window-x="-9"
     inkscape:window-y="-9"
     inkscape:window-maximized="1"
     inkscape:current-layer="svg38" />
  <g
     id="templatesarea.com">
    <g
       id="SPLINE">
      <g
         id="g28">
        <path
           d="m237.7,197.48c1.73-.67,2.07-2.18,1.68-3.79-.3-1.24.17-1.8,1.19-2.3,1.01-.5,1.84-.55,2.66.3.49.51,1.07.93,1.82,1.45,2.54.27,3.25-1.02,3.04-3.07-.11-1.06-.35-2.11-.51-3.17-.38-2.71-1.71-3.66-4.44-3.27-1.73.26-3.17,1.2-4.74,1.82-8.52,3.35-16.71,3.42-24.3-2.47-.84-.66-1.78-1.21-2.7-1.76-1.14-.67-2.36-1-3.5-.1-1.08.85-1.43,2.04-1.21,3.37.21,1.16.27,2.32.05,3.47-.26,1.34,0,2.52,1.22,3.28,1.28.79,2.46.58,3.74-.26,1.99-1.32,2.99-.72,3.27,1.74.07.63.04,1.28.25,1.85.43,1.25,1.26,2.22,2.63,2.4,1.31.17,2.19-.6,2.83-1.66.53-.89.76-2.01,2.3-1.73,1.48.26,1.72,1.28,2.03,2.43.39,1.43,1.02,2.72,2.88,2.61,1.63-.09,2.32-1.13,2.72-2.52.24-.82.11-1.9,1.27-2.14,1.24-.25,1.35.91,1.86,1.58,1.01,1.31,2.07,2.65,3.98,1.92Z"
           style="fill: #d46500;"
           id="path2" />
        <path
           d="m265.64,468.49c.48.62.69,1,.99,1.29,5.62,5.2,12.34,8.24,19.78,9.58,8.74,1.57,16.71-.15,23.36-6.4,2.05-1.92,2.09-3.01-.16-4.47-6.95-4.49-14.53-6.76-23.1-6.1-7.45.68-13.97,3.56-20.87,6.1Z"
           style="fill: #d46500;"
           id="path4" />
        <path
           d="m280.25,418.41c.83,1.27,1.28,2.59.31,3.99-.99,1.45-2.38,1.32-3.85.96-3.03-.76-6.05-1.63-9.12-2.17-3.78-.67-6.42,2.04-5.78,5.66.5,2.81,3.25,5.06,6.64,5.27,7.64.47,14.24-2.93,20.99-5.74,1.4-.58,1.28-1.8.81-2.97-1.43-3.66-2.78-7.37-4.34-10.97-1.22-2.8-2.78-5.43-5.24-7.36-1.03-.8-2.22-1.35-3.47-.61-1.21.72-1.54,2-1.35,3.29.24,1.67.71,3.3,1.17,5.14.86,2.12,2.09,3.79,3.22,5.51Z"
           style="fill: #d46500;"
           id="path6" />
        <path
           d="m233.75,425.28c-2.1,6.87,1.65,13.62,8.95,16.37,8.81,3.3,16.89,1.17,24.75-3.02.62-.33,1.27-.72,1.32-1.86-3.44-.85-7.13-1.48-9.84-4.5-2.79-3.62-3.29-7.5-1.2-11.23,3.21-5.73,8.66-5.87,14.21-4.63.71-1.19.02-1.97-.25-2.78-.79-2.5-1.17-5.05-.97-7.67.46-6.06,4.95-9.07,10.74-7.34,3.32.98,4.92,3.7,6.74,6.23.75,1.03,1.05,2.46,2.51,3.01.19-.38.37-.61.38-.84.33-7.74-.89-15.21-4.54-22.1-2.48-4.68-6.11-8.09-11.54-9.3-7.2-1.61-12.14,3.53-10.07,10.58.53,1.81.99,3.63,1.44,5.46.3,1.2-.27,2.1-1.22,2.76-.87.62-1.72.26-2.48-.28-1.01-.74-1.99-1.52-2.99-2.27-3.43-2.58-7.25-3.84-11.55-3.66-3.44.15-5.84,2.37-6.32,5.77-.6,4.18,1.32,7.33,4.17,9.98,2.16,2.01,4.65,3.66,6.89,5.58,2.16,1.85,1.89,3.82-.65,5.04-1.12.53-2.37.84-3.58,1.11-2.82.62-5.54,1.52-8.13,2.77-3.03,1.47-5.71,3.35-6.78,6.84Z"
           style="fill: #d46500;"
           id="path8" />
        <path
           d="m228.04,71.06c-.2,1.05-1.22,1.21-2.04,1.52-5.77,2.19-11.52,4.38-17.02,7.27-11.09,5.84-19.89,14.21-27.64,23.87-.22.28-.43.57-.66.85-2.22,2.77-2.81,2.68-4.2-.57-2.66-6.17-4.74-12.55-6.85-18.92-3.57-13.03-6.2-25.79-6.58-38.92-.07-2.23-.69-4.43-.29-6.69.31-1.85,1.13-2.66,3.2-2.72,7.41-.18,14.02,2.43,20.59,5.4,13.11,5.93,24.33,14.71,35.53,23.53,1.4,1.11,2.91,2.08,4.35,3.15.77.57,1.85,1.01,1.61,2.24Zm-15.3,206.54c-1.04-.72-.62-1.95-.52-3,.09-.88.26-1.77.39-2.65,1.1-8.33,3.45-15.82,6.77-23.02,1.58-3.42,3.3-6.76,4.78-10.22.85-1.99,2.14-2.77,4.2-2.31,10.23,2.28,20.65,3.37,30.94,5.27.94.17,1.64.38,2.11,1.34,2.76,5.66,7.57,8.57,13.6,9.18,5.86.6,11.8,1.03,17.47-1.42,1.62-.7,3.25-1.54,4.11-2.91,2.08-3.3,5.41-3.78,8.71-4.49,1.66-.36,3.37-.56,4.98-1.08,2.42-.77,3.67.19,4.49,2.41,2.2,6.01,3.45,12.21,4.01,18.57.23,2.58.38,5.17.52,7.77.05.95.28,2.08-.78,2.67-1,.55-1.65-.4-2.38-.82-1.63-.93-3.18-2.01-4.99-2.6-2.66-.87-3.99.24-3.54,3.01.14.87.37,1.76.7,2.58,3.7,9.33,4.48,19.12,4.51,29,0,2.41-.31,4.82-.49,7.22-.19,2.42-1.24,2.98-3.33,1.61-1.2-.79-2.29-1.67-3.78-1.91-2.94-.49-4.14.29-4.16,3.23-.05,6.28-.41,12.52-1.11,18.76-.81,7.31-2.23,14.49-5.06,21.34-1,2.43-2.37,3.6-5.21,3.56-11.92-.16-23.49,2.03-34.77,5.87-4.58,1.55-4.91,1.56-7.17-2.64-6.18-11.43-11.55-23.21-13.69-36.22-.35-2.15-.51-4.8-2.84-5.78-2.38-.99-3.02,2.05-4.93,2.81-1.31-.2-1.91-1.25-2.27-2.5-2.98-10.66-4.63-21.5-4.34-32.59.07-2.48.68-4.96.94-7.44.17-1.52.24-3.24-1.07-4.25-1.46-1.12-2.62.36-3.86.97-.93.46-1.88,1.4-2.94.68Zm-47.09-139.91c3.36,1.33,4.75.32,4.43-3.27-.25-2.67-.74-5.32-.97-7.99-.24-2.6.42-3.23,2.86-2.47,4.1,1.29,8.19,2.65,12.17,4.25,24.34,9.79,45.89,23.77,64.36,42.51,11.94,12.1,18.83,26.64,21.86,43.17,1.08,5.91,1.57,11.88,1.78,17.88.09,2.48-.95,3.12-3.11,3.63-5.99,1.43-11.89.69-17.82-.13-17.55-2.18-34.13-6.25-49.87-13.29-15.62-6.98-29.58-16.38-40.85-29.45-.56-.67-1.32-1.24-1.37-2.24.67-1.14,1.72-.77,2.64-.65s1.86.3,2.46-.55c.74-1.04-.13-1.92-.64-2.67-1.69-2.46-4.38-3.91-6.42-6.04-4.36-4.54-8.3-9.38-11.23-15.01-.41-.79-.9-1.63-.33-2.52.69-1.12,1.73-.52,2.68-.47,1.87.11,3.66.96,5.57.65,1.68-.27,2.55-.89,2.49-3-.14-4.58-2.43-8.57-3.06-12.99-.15-1.08-.65-2.18.54-2.89,1.24-.74,1.96.37,2.76,1.02,1.67,1.35,3.24,2.87,5.41,3.41,1.91.47,3.3-.61,2.99-2.55-.32-2.11-.98-4.17-1.52-6.24-.21-.79-.61-1.64.17-2.24.62-.48,1.33-.14,2.03.14Zm234.93-102.13c1.08,16.05-2.61,31.09-9.33,45.53-3.29,7.06-6.55,14.13-9.79,21.22-1.16,2.55-2.22,2.88-4.52,1.14-1.07-.8-2.01-1.78-3.01-2.67-6.79-6.54-13.12-13.01-20.48-18.36-5.24-3.81-10.95-6.78-16.62-9.87-1.99-1.08-2.38-2.13-.68-3.86,17-17.2,36.59-30.06,60.2-36.26,3.57-.94,3.99-.53,4.24,3.14Zm-226.03,420.23c-.16,1.76-1.54,2.62-3.02,3.07-8.57,2.65-17.2,5.01-26.3,4.73-1.14-.04-2.33-.3-3.85.54,2.84,8.99,8.25,16.32,15.09,22.7-1.26,1.4-2.42.95-3.48.59-26.15-9.01-45.77-25.45-57.7-50.65-7.53-15.91-11.16-32.63-10.34-50.26.37-15.75,4.23-29.95,12.02-43.37,22.51,36.77,56.11,49.95,97.6,47.95-4.69,9.56-13.68,12.13-23.04,15.14,3.39,2.87,6.77,4.54,10.3,6,1.16.48,2.37.84,3.49,1.39,3.01,1.49,3.59,3.91,1.43,6.54-1.18,1.44-2.6,2.75-4.09,3.86-7.42,5.5-15.36,9.9-24.59,11.54-.54.1-1.07.2-1.49.96,3.32,6.05,7,11.88,13.68,15.05.57.26,1.13.55,1.68.84,1.36.75,2.79,1.55,2.62,3.38Zm180.39-95.26c-.52,2.21-.1,3.58,2.22,4.63,9.73,4.41,19.13,9.41,27.97,15.43,15.21,10.26,28.79,21.98,42.54,33.48,2.89,2.4,5.73,4.88,8.5,7.43,1.26,1.15,3.25,2.35,2,4.42-1.36,2.25-3.54,1.18-5.31.47-5.95-2.38-11.35-5.77-16.52-9.47-13.57-9.7-27.51-18.82-41.86-27.31-17.41-10.3-35.76-18.56-55.02-24.74-5.71-1.83-11.62-2.97-17.63-3.46-1.42-.12-2.83-.32-3-2.03-.16-1.51,1.04-2.18,2.28-2.6,5.39-1.86,11-2.47,16.65-2.38,7.49.13,14.7,1.94,21.83,4.13,3.52,1.08,3.42.99,4.5-2.51,3.06-9.83,8.72-17.99,16.45-24.72,2.57-2.23,5.24-4.35,7.95-6.41,1.25-.94,2.68-2.19,4.25-.51,1.64,1.75.52,3.12-.85,4.31-9.78,8.43-14.1,19.74-16.94,31.86Zm39.11-223.83c-.73.92-1.22,2.04-.5,3.24.75,1.24,1.91.96,3.1.87,3.02-.21,5.7-1.45,8.44-2.54.88-.34,1.85-1.16,2.64-.06.67.95.48,2.02-.23,2.99-1.27,1.74-2.54,3.47-3.7,5.28-1.87,2.91-.79,5.03,2.69,5.3,1.41.11,2.86,0,4.39,0,1.08,1.64-.03,2.76-1.05,3.91-.93,1.24-1.7,2.13-2.31,3.11-2.08,3.31-.79,5.69,3.17,5.96.94.07,1.97-.31,2.94.51-.25,1.43-1.45,2.14-2.4,3-1.8,1.65-3.3,3.55-4.65,5.55-1.77,2.6-1.03,4.31,2.02,5.1,3.89,1.01,3.98,1.29,1.57,4.49-6.23,8.24-14.03,14.77-22.49,20.6-17.2,11.85-35.2,22.04-55.48,27.78-10.08,2.85-20.3,5.13-30.53,7.31-1.03.23-2.2.47-3.13-.25-2.32-1.76-4.73-3.18-7.69-3.58-1.43-.2-1.27-1.5-1.28-2.58-.08-6.74.85-13.4,2.17-19.97,3.07-15.3,8.77-29.49,18.56-41.82,10.25-12.92,22.43-23.29,38.1-29.23,14.85-5.62,30.2-9.53,45.48-13.67,3.25-.88,3.82-.1,2.9,3.21-.57,2.01-1.42,3.84-2.73,5.49Zm.92-15.26c-1.36-3.09.68-5.18,1.95-7.4,9.57-16.66,17.62-33.87,19.81-53.23,1.14-9.99,1.71-20-.79-29.9-1.18-4.69-2.5-9.34-4.36-13.82-2.41-5.8-8-9.02-14.41-6.09-3.9,1.78-8.13,2.85-12.04,4.58-16.39,7.26-32.63,14.82-48.28,23.59-8.14,4.57-16.33,9.16-22.66,16.18-2.46,2.73-4.9,3.05-8.1,2.15-7.45-2.08-15.1-3-22.82-3.18-10.07-.23-20.05.67-29.57,4.34-2.2.85-4.03.7-6.04-.61-3.31-2.15-6.78-4.01-10.15-6.08-18.36-11.25-37.1-21.76-57.34-29.37-8.52-3.2-17.16-5.99-26.36-5.48-6.34.35-9.68,2.39-10.29,6.35-.44,2.9-.55,5.85-.36,8.83.57,9.13,2.06,18.14,3.48,27.15,2.87,18.1,7.47,35.73,14.61,52.65,1.63,3.87,3.58,7.53,1.1,11.88-.79,1.38-1.22,2.05-2.89,1.89-4.1-.38-5.34,1.15-4.45,5.24.21.96.51,1.9.78,2.85.44,1.59,1.99,3.39.68,4.78-1.43,1.51-3.14-.33-4.65-.82-4.92-1.6-7.65.61-6.62,5.69.49,2.45,1.31,4.85,2.11,7.21,1.27,3.72.96,4.19-2.87,3.97-5.39-.31-6.97,2.03-5.09,7.05,2.95,7.92,7.86,14.44,13.82,20.26,1.14,1.11,2.12,2.13.44,3.49-1.82,1.48-1.73,3.1-.65,4.99,3.66,6.41,8.69,11.74,14.39,16.17,14.88,11.57,31.14,20.75,49.21,26.47,3.77,1.2,4.11,1.87,2.13,5.36-4.17,7.37-7.22,15.2-9.39,23.35-1.45,5.45-2.25,11.06-1.85,16.74.26,3.78,2.14,4.87,5.48,3.34.48-.22.95-.54,1.67-.14,1.35,2.07-.2,4.22-.23,6.36-.11,7.82.23,15.6,1.71,23.27,1.02,5.27,2.19,10.53,4.33,15.5.8,1.89,2.12,3.43,4.33,2.52,2.86-1.17,3.39.32,3.78,2.57,1.7,9.73,5.22,18.78,10.1,27.34,1.16,2.02,2.25,4.07,3.35,6.13,1.41,2.65,1.26,3.18-1.6,3.97-8.3,2.31-16.27,5.57-24.29,8.67-10.85,4.18-21.92,7.36-33.59,7.84-15.46.65-30.04-2.99-43.88-9.72-10.28-5-19.24-11.69-26.71-20.42-3.94-4.6-6.92-9.78-10.01-14.92-2.43-4.03-4.44-4.09-7.55-.68-.6.67-1.22,1.32-1.7,2.08-7.93,12.36-11.79,26.03-12.68,40.56-.65,10.53.71,20.91,2.7,31.23,3.02,15.69,8.53,30.35,18.47,43.06,7.55,9.64,16.9,17.28,27.28,23.66,8.81,5.42,18.08,9.89,28.19,12.34,5.4,1.31,10.97,1.65,16.43,2.61,17.26,3.05,34.68,5.16,51.77,9.32,18.79,4.58,38.08,5.43,57.36,5.83,21.79.45,43.56,0,65.32-1.04,9.04-.43,18.14.12,27.12-1.08,17.86-2.38,34.4-8.28,49.07-19.05,11.28-8.27,22.92-16.11,30.81-28.32,10.61-15,15.19-31.58,15.32-49.67.12-17.88-2.19-35.34-7.96-52.29-3.97-11.62-9.54-22.38-17.46-31.87-3.34-4.01-7.75-6.95-10.79-11.23-4.05-5.75-8.96-10.68-14.2-15.35-10.71-9.54-20.65-19.93-31.88-28.88-13.8-10.98-24.44-24.61-33.76-39.41-.99-1.56-1.55-2.77.69-3.8,10.54-4.87,20-11.52,29.67-17.85,10.41-6.8,20.02-14.49,28.51-23.57,1.95-2.1,3.94-4.2,5.29-6.75,1.44-2.69.85-3.75-2.1-4.01-.9-.08-1.93,0-2.32-.99-.39-1.01.52-1.62,1.13-2.25,2.36-2.45,4.89-4.81,6.68-7.69,1.07-1.71,2.93-3.62,1.52-5.88-1.33-2.14-3.59-.79-5.46-.8-.77,0-1.69.57-2.25-.28-.59-.91.04-1.78.57-2.45,1.23-1.56,2.22-3.25,3-5.06,1.25-2.86,0-4.57-3.05-4.3-1.05.1-2.12.41-3.26-.42,1.36-4.38,3.12-8.69,3.81-13.29.3-2.05-.96-3.55-2.99-3.24-1.04.16-2.14.54-2.98,1.15-2.23,1.57-4.81,2.38-7.21,3.55-.92.45-1.94,1.01-3.1-.07.87-2.3,1.79-4.61,2.64-6.95.59-1.62,1.32-3.51.13-4.88-1.17-1.34-2.9-.09-4.26.31-1.93.57-2.69-.12-3.44-1.82Zm-14.38,280.83c2.66,6.4,4.76,12.91,4.44,20.02-.15,3.03-.69,5.85-2.13,8.5-.81,1.48-.73,2.57.87,3.58,7.04,4.46,9.65,11.21,9.76,19.21-.61,4.34-1.97,7.92-4.23,11.12-1.02,1.44-1.01,2.3.43,3.54,3.97,3.44,5.09,9.19,3,13.99-3.46,7.98-9.93,11.69-18.45,10.59-.43-.05-.86,0-1.72,0,1.13,2.88,3.37,4.38,5.29,6.12.69.63,1.97.91,1.55,2.2-.37,1.14-1.58.92-2.48,1.25-2.28.79-3.97-.08-5.57-1.6-2.29-2.15-4.11-4.68-6.24-7.76-1.98,2.86-4.36,4.57-7.34,5.49-6.2,1.87-12.19,1.62-18-1.32-1.16-.59-2.27-1.05-3.58-.62-6.17,2.07-10.94-.75-15.46-4.44-.75-.6-1.19-1.61-2.32-1.73-1.05.43-1.13,1.54-1.62,2.36-2.83,4.65-6.86,7.76-12.08,9.23-3.04.85-4.24-.23-4.43-3.45-.23-3.96-.2-7.88.78-11.75.48-1.94-.4-2.44-2.15-2.15-15.45,2.6-27.79-3.54-38.6-13.86-2.31-2.21-2.13-4.75.5-5.96,7.48-3.43,14.85-7.22,23.08-8.6,9.22-1.52,17.58.82,25.4,5.62.74.45,1.38,1.2,2.61.92.21-1.78.45-3.6.63-5.44.22-2.38.98-4.56,2.46-6.44.91-1.15.7-2.14-.13-3.13-4.55-5.43-9.14-10.81-14.94-15-2.02-1.46-4.23-1.83-6.63-1.25-4.13.98-7.97,2.62-11.6,4.86-7.47,4.59-14.83,9.52-23.66,11.22-9.97,1.92-19.01.26-25.74-8.02-7.9-9.73-4.09-22.49,7.76-26.73,1.99-.72,4.17-.89,6.24-2.2-1.44-1.64-2.84-3.13-4.12-4.7-3.48-4.28-5.45-9.06-4.28-14.66.89-4.3,4.25-7.19,8.66-7.61,3.86-.36,7.7-.44,11.36,1.22.49.23,1,.4,1.58.13.69-.73.43-1.67.46-2.53.19-5.24,3.2-9.18,8.22-10.73,6.87-2.11,14.88.58,19.88,6.84,5.26,6.58,6.97,14.41,7.58,22.56.44,5.89-.41,11.82.53,17.72.8,5.03,1.97,6.74,6.33,8.38.52-1.05-.22-1.86-.54-2.69-5.14-12.81-4.75-25.39,1.69-37.62,3.71-7.06,11.26-10.24,17.52-7.69,6.11,2.49,9.74,10.14,8.1,17.26-1,4.32-2.96,8.24-5.04,12.13-2.61,4.9-5.47,9.7-7.13,15.03-2.09,6.72-1.67,13.25,1.99,19.4.52.87.91,2.3,2.28,1.8,1.47-.55.96-1.85.62-3-1.53-5.05-.39-9.53,2.96-13.52,2.43-2.91,5.59-4.22,9.28-3.77,2.65.31,4.41-.37,5.79-2.72,1.76-2.98,5-3.58,8.07-4.26,4.23-.92,8.39-.28,12.44,1,1.77.56,2.58.1,2.63-1.71.09-3.43,1.4-6.46,3.03-9.35,2.03-3.59,4.16-7.12,5.75-10.93.94-2.26,2.35-2.38,4.19-.96,2.24,1.72,3.44,4.14,4.47,6.61Z"
           style="fill: #d46500;"
           id="path10" />
        <path
           d="m304,398.93c-2.33,11.01.2,20.8,5.9,29.96.76-.3.95-.73,1.01-1.17,1.08-8.29,4.93-15.4,9.35-22.3,1.98-3.1,3.34-6.49,3.96-10.17.71-4.26-1.39-8.8-4.93-10.4-3.63-1.65-7.41-.49-10.37,3.2-2.52,3.14-3.87,6.81-4.92,10.87Z"
           style="fill: #d46500;"
           id="path12" />
        <path
           d="m305.65,492.81c-.09.74,0,1.42.67,1.92.89.18,1.49-.44,2.34-.94,4.62-3.69,6.21-8.53,6.38-14.02.03-1.09.2-2.3-.99-2.78-1.1-.45-1.78.56-2.44,1.25-3.92,4.06-5.34,9.16-5.95,14.57Z"
           style="fill: #d46500;"
           id="path14" />
        <path
           d="m322.48,484.27c2.21,4.79,6.62,7.91,10.37,7.31-.96-3.63-2.63-7.04-3.14-10.78-.03-.26-.43-.64-.72-.71-2.54-.56-5.09-1.07-7.71-1.61-.26,2.3.47,3.94,1.2,5.78Z"
           style="fill: #d46500;"
           id="path16" />
        <path
           d="m341.85,469.34c-5.88-1.57-8-5.97-8-10.45,0-3.99,2.38-7.69,5.67-9.72l-2.31-.17c-1.15.54-2.92.37-6.17.07-7.38-.68-12.22,2.93-13.65,10.12-.55,2.76.21,5.35.87,7.93,1.12,4.35,4.58,7.1,9.03,7.53,1.68.17,3.32.72,5,.99,2.57.41,3.55,1.98,3.72,4.46.57,8.16,7.14,14.39,15.28,14.3,3.57-.04,6.61-1.54,8.44-4.85,1.41-2.54,1.15-3.32-1.73-3.76-7.43-1.14-11.78-5.4-12.84-12.74-.32-2.3-1.23-3.16-3.32-3.71Z"
           style="fill: #d46500;"
           id="path18" />
        <path
           d="m344.55,195.72c1.49-.69,1.32-2.02,1.03-3.47-.36-1.85.8-2.62,2.6-1.84.57.26,1.03.78,1.61.96,1.1.37,2.34.75,3.22-.35.85-1.04.56-2.16-.18-3.21-.46-.66-1.01-1.31-1.27-2.04-1.44-4.21-2.57-4.64-6.21-2-2.68,1.94-5.47,3.41-9.08,3.5-7.48.79-14.55.59-20.9-3.66-.37-.25-.75-.51-1.16-.69-1.14-.49-2.34-.53-3.27.33-.99.91-.89,2.09-.26,3.21.67,1.19,1.05,2.33.74,3.8-.26,1.24.34,2.48,1.53,3.21.87.55,1.71.21,2.52-.26,3.03-1.76,4.14-1.32,5.33,2.1.46,1.32,1.05,2.58,2.61,2.73,1.48.14,2.24-.91,2.71-2.17.34-.9.81-1.57,1.93-1.49,1.16.08,1.87.67,2,1.79.22,1.79,1.4,2.05,2.87,2.08,1.71.04,2.14-1.15,2.26-2.44.13-1.38.75-2.21,2.1-2.33,1.28-.11,2.71-.61,3.6.93.84,1.45,2.16,1.99,3.65,1.32Z"
           style="fill: #d46500;"
           id="path20" />
        <path
           d="m337.22,449l2.31.17c1.1-.67,2.3-1.16,3.55-1.41,5.49-1.12,12.39,2.26,14.93,7.27.4.79.57,1.48-.21,2.16-.77.66-1.45.91-2.38.23-1.66-1.22-3.08-2.71-4.93-3.7-3.64-1.95-7.28-1.14-9.58,2.31-1.51,2.27-1.43,5.37.24,6.98,1.18,1.13,2.76,1.17,4.25,1.44,4.44.81,6.07,2.87,5.55,6.96-.58,4.61,2.09,8.01,7.08,9,4.46.88,7.35-1.19,8.66-5.89.55-1.96.1-3.75-.37-5.54-.73-2.81-.25-4.57,2.63-6.06,6.01-3.08,7.22-9.54,2.97-14.71-2.36-1.32-4.49-.97-6.6.09-3.87,1.94-4.83,1.53-6.35-2.72-2.06-5.79-7.91-8.91-13.93-7.56-2.76.63-4.34,2.22-5.03,4.93-.96,3.72-1.4,5.4-2.78,6.06Z"
           style="fill: #d46500;"
           id="path22" />
        <path
           d="m379.41,425.91c.79-2.82.45-5.68.4-8.77-1.01-4.94-2.24-9.54-4.98-14.07-2.58,3.2-3.89,6.6-5.32,9.9-1.68,3.86-1.79,7.78-.27,11.74.67,1.75,1.34,3.49,2.04,5.24,1.06,2.62,2.92,3.1,5.13,1.24,1.62-1.36,2.42-3.26,2.99-5.27Z"
           style="fill: #d46500;"
           id="path24" />
        <path
           d="m374.57,443.38c7.85,4.49,7.51,20.95-1.01,24.73-1.09.48-1.86,1.16-1.45,2.47,1.21,3.77-.06,7.06-1.99,10.18-1.19,1.93-.67,3.18,1.28,4.04,4.54,2.03,8.76,1.22,12.68-1.58,3.7-2.63,4.4-7.58,1.59-11.14-.88-1.12-1.98-2.07-2.94-3.12-2.36-2.58-2.41-3.87-.15-6.52,3.67-4.31,4.81-9.37,4.12-14.8-.98-7.74-5.54-11.22-13.29-10.5-3.68.34-5.73-.69-6.86-3.73-1.26-3.37-3.18-6.19-6.15-8.52-7.14-4.8-14.71-3.73-18.66,2.78-1.6,2.65-3.53,3.6-6.51,3.77-6.09.33-8.49,3.64-7.72,9.67.38,3.04,2.49,2.92,4.65,3.23,2.11.28,2.8-.73,3.27-2.58.85-3.38,2.36-6.37,5.78-7.97,7.14-3.35,18.11,0,21.97,6.9.88,1.58,1.79,1.95,3.44,1.49,2.8-.79,5.43-.25,7.96,1.2Z"
           style="fill: #d46500;"
           id="path26" />
      </g>
    </g>
  </g>
  <g
     id="_0"
     data-name="0">
    <g
       id="MTEXT">
      <text
         transform="translate(206.97 543.28)"
         style="font-family: ArialMT, Arial; font-size: 16px;"
         id="text34"><tspan
           x="0"
           y="0"
           id="tspan32">templatesarea.com</tspan></text>
    </g>
  </g>
  <metadata
     id="metadata148">
    <rdf:RDF>
      <cc:License
         rdf:about="http://creativecommons.org/licenses/by-nc/4.0/">
        <cc:permits
           rdf:resource="http://creativecommons.org/ns#Reproduction" />
        <cc:permits
           rdf:resource="http://creativecommons.org/ns#Distribution" />
        <cc:requires
           rdf:resource="http://creativecommons.org/ns#Notice" />
        <cc:requires
           rdf:resource="http://creativecommons.org/ns#Attribution" />
        <cc:prohibits
           rdf:resource="http://creativecommons.org/ns#CommercialUse" />
        <cc:permits
           rdf:resource="http://creativecommons.org/ns#DerivativeWorks" />
      </cc:License>
      <cc:Work
         rdf:about="">
        <cc:license
           rdf:resource="http://creativecommons.org/licenses/by-nc/4.0/" />
        <dc:title>Download Our Free Fox SVG Design for Your Creative Projects</dc:title>
        <dc:description>Download our free fox SVG design, perfect for crafting and design projects. Add charm with our SVG cutting files today!</dc:description>
        <dc:creator>
          <cc:Agent>
            <dc:title>templatesarea.com</dc:title>
          </cc:Agent>
        </dc:creator>
        <dc:publisher>
          <cc:Agent>
            <dc:title>templatesarea.com</dc:title>
          </cc:Agent>
        </dc:publisher>
        <dc:rights>
          <cc:Agent>
            <dc:title>https://www.templatesarea.com/license-agreement/</dc:title>
          </cc:Agent>
        </dc:rights>
      </cc:Work>
    </rdf:RDF>
  </metadata>
</svg>
